<?xml version="1.0" encoding="utf-8"?>
<!-- Generator: Adobe Illustrator 25.2.1, SVG Export Plug-In . SVG Version: 6.00 Build 0)  -->
<svg version="1.1" id="Layer_1" xmlns="http://www.w3.org/2000/svg" xmlns:xlink="http://www.w3.org/1999/xlink" x="0px" y="0px"
	 viewBox="0 0 24 24" style="enable-background:new 0 0 24 24;" xml:space="preserve">
<style type="text/css">
	.st0{fill:none;stroke:#009B96;stroke-width:0.25;stroke-miterlimit:10;}
	.st1{fill:#009B96;}
</style>
<path class="st0" d="M22.2,23.5H1.8c-0.6,0-1.1-0.5-1.1-1.1V4.8c0-0.6,0.5-1.1,1.1-1.1h20.4c0.6,0,1.1,0.5,1.1,1.1v17.6
	C23.3,23,22.8,23.5,22.2,23.5z"/>
<path class="st1" d="M23.3,10H0.6V4.8c0-0.6,0.5-1.1,1.1-1.1h20.4c0.6,0,1.1,0.5,1.1,1.1V10z"/>
<path class="st1" d="M4.8,5H4.1C3.9,5,3.7,4.8,3.7,4.5V1.2c0-0.2,0.2-0.4,0.4-0.4h0.7C5,0.8,5.2,1,5.2,1.2v3.3C5.2,4.8,5,5,4.8,5z"
	/>
<path class="st1" d="M19.2,5L19.2,5c-0.4,0-0.8-0.4-0.8-0.8v-3c0-0.2,0.2-0.4,0.4-0.4h0.7C19.8,0.8,20,1,20,1.2v3
	C20,4.6,19.6,5,19.2,5z"/>
</svg>
