<?xml version="1.0" encoding="utf-8"?>
<!-- Generator: Adobe Illustrator 25.2.1, SVG Export Plug-In . SVG Version: 6.00 Build 0)  -->
<svg version="1.1" id="Layer_1" xmlns="http://www.w3.org/2000/svg" xmlns:xlink="http://www.w3.org/1999/xlink" x="0px" y="0px"
	 viewBox="0 0 841.89 595.28" style="enable-background:new 0 0 841.89 595.28;" xml:space="preserve">
<style type="text/css">
	.st0{fill:#939598;}
	.st1{fill:#009B96;}
</style>
<g>
	<path class="st0" d="M275.67,285.62c8.22,0,14.87-2.35,19.95-7.06c5.08-4.71,7.62-11.32,7.62-19.83c0-8.52-2.54-15.13-7.62-19.84
		c-5.08-4.7-11.73-7.06-19.95-7.06c-8.21,0-14.86,2.35-19.95,7.06c-5.08,4.71-7.62,11.32-7.62,19.84c0,8.52,2.54,15.13,7.62,19.83
		C260.81,283.27,267.46,285.62,275.67,285.62 M275.67,319.24c-8.66,0-16.51-1.57-23.53-4.71c-7.02-3.14-13.03-7.43-18.04-12.89
		c-5-5.45-8.85-11.88-11.54-19.27c-2.69-7.39-4.03-15.27-4.03-23.64c0-8.37,1.34-16.25,4.03-23.64c2.69-7.4,6.54-13.82,11.54-19.27
		c5.01-5.45,11.02-9.75,18.04-12.89c7.02-3.14,14.87-4.71,23.53-4.71c8.67,0,16.51,1.57,23.53,4.71
		c7.02,3.14,13.04,7.43,18.04,12.89c5.01,5.46,8.85,11.88,11.54,19.27c2.69,7.4,4.03,15.28,4.03,23.64c0,8.37-1.34,16.25-4.03,23.64
		c-2.69,7.4-6.53,13.82-11.54,19.27c-5.01,5.46-11.02,9.75-18.04,12.89C292.19,317.67,284.34,319.24,275.67,319.24"/>
	<path class="st0" d="M394.91,257.3c0,10.73,3.07,19.42,9.22,26.05c6.15,6.64,14.78,9.95,25.91,9.95c11.12,0,19.76-3.32,25.9-9.95
		c6.15-6.63,9.22-15.32,9.22-26.05c0-10.73-3.07-19.41-9.22-26.05c-6.15-6.63-14.78-9.95-25.9-9.95c-11.12,0-19.76,3.32-25.91,9.95
		C397.98,237.89,394.91,246.57,394.91,257.3 M354.52,107.14h43.91v94.25h0.59c5.07-6.83,11.56-11.66,19.46-14.49
		c7.9-2.83,16.44-4.24,25.61-4.24c10.14,0,19.22,2.1,27.22,6.29c8,4.2,14.78,9.81,20.34,16.83c5.56,7.02,9.85,15.07,12.88,24.15
		c3.02,9.07,4.54,18.59,4.54,28.54c0,10.73-1.66,20.59-4.98,29.56c-3.32,8.98-8.05,16.73-14.2,23.27
		c-6.15,6.54-13.52,11.61-22.1,15.22c-8.59,3.61-18.15,5.41-28.69,5.41c-5.08,0-9.86-0.69-14.34-2.05
		c-4.49-1.37-8.63-3.12-12.44-5.27c-3.8-2.14-7.12-4.54-9.95-7.17c-2.83-2.63-5.12-5.22-6.88-7.76h-0.58v18.73h-40.39V107.14z"/>
	<path class="st0" d="M592.4,245.62c0,2.54,0.11,5.71,0.34,9.52c0.22,3.81,0.86,7.47,1.91,10.98c1.05,3.51,2.62,6.5,4.71,8.97
		c2.1,2.46,5.01,3.7,8.74,3.7c4.03,0,7.02-1.71,8.96-5.15c1.94-3.43,2.91-7.02,2.91-10.76c0-3.28-0.45-6.46-1.34-9.52
		c-0.9-3.06-2.16-5.79-3.81-8.18c-1.64-2.39-3.73-4.29-6.28-5.72c-2.54-1.42-5.53-2.13-8.96-2.13h-7.17V245.62z M626.47,237.33v0.45
		c5.83,3.74,10.01,8.7,12.55,14.9c2.54,6.2,3.81,12.74,3.81,19.61c0,5.08-0.71,9.97-2.13,14.68c-1.42,4.7-3.55,8.85-6.39,12.44
		c-2.84,3.58-6.35,6.42-10.53,8.52c-4.18,2.09-9.04,3.14-14.57,3.14c-6.27,0-11.58-1.15-15.91-3.47c-4.33-2.32-7.92-5.45-10.76-9.41
		c-2.84-3.96-5.04-8.48-6.61-13.56c-1.57-5.08-2.73-10.34-3.47-15.8c-0.75-5.45-1.19-10.9-1.34-16.36
		c-0.15-5.45-0.23-10.49-0.23-15.13c-5.97,0-10.72,2.13-14.23,6.39c-3.51,4.26-5.27,9.3-5.27,15.13c0,5.53,1.16,10.57,3.47,15.13
		c2.32,4.56,5.49,8.63,9.53,12.21l-18.38,17.93c-5.83-6.27-10.2-13.6-13.11-21.96c-2.91-8.37-4.37-17.03-4.37-26
		c0-9.86,1.23-17.96,3.7-24.32c2.46-6.35,6.09-11.43,10.87-15.24c4.78-3.81,10.65-6.46,17.59-7.96c6.95-1.49,14.98-2.24,24.09-2.24
		h55.36v30.93H626.47z"/>
</g>
<g>
	<path class="st1" d="M155.58,375.81c-4.4-5.47-10.2-8.2-17.4-8.2c-2.53,0-5,0.6-7.4,1.8c-2.4,1.2-3.6,3.27-3.6,6.2
		c0,2.4,1.23,4.17,3.7,5.3c2.47,1.13,5.6,2.13,9.4,3c3.8,0.87,7.87,1.8,12.2,2.8c4.33,1,8.4,2.57,12.2,4.7
		c3.8,2.13,6.93,5.03,9.4,8.7c2.47,3.67,3.7,8.57,3.7,14.7c0,6.27-1.37,11.43-4.1,15.5c-2.73,4.07-6.23,7.33-10.5,9.8
		c-4.27,2.47-9.07,4.2-14.4,5.2c-5.33,1-10.6,1.5-15.8,1.5c-6.8,0-13.67-0.97-20.6-2.9c-6.93-1.93-12.8-5.37-17.6-10.3l18.2-20.2
		c2.8,3.47,5.9,6.1,9.3,7.9c3.4,1.8,7.37,2.7,11.9,2.7c3.47,0,6.6-0.5,9.4-1.5c2.8-1,4.2-2.83,4.2-5.5c0-2.53-1.23-4.43-3.7-5.7
		c-2.47-1.27-5.6-2.33-9.4-3.2c-3.8-0.87-7.87-1.8-12.2-2.8c-4.33-1-8.4-2.5-12.2-4.5c-3.8-2-6.93-4.83-9.4-8.5
		c-2.47-3.67-3.7-8.57-3.7-14.7c0-5.73,1.17-10.67,3.5-14.8c2.33-4.13,5.4-7.53,9.2-10.2c3.8-2.67,8.17-4.63,13.1-5.9
		c4.93-1.27,9.93-1.9,15-1.9c6.4,0,12.87,0.93,19.4,2.8c6.53,1.87,12.07,5.2,16.6,10L155.58,375.81z"/>
	<path class="st1" d="M191.18,316.61c0-4.8,1.7-8.9,5.1-12.3c3.4-3.4,7.5-5.1,12.3-5.1s8.9,1.7,12.3,5.1c3.4,3.4,5.1,7.5,5.1,12.3
		s-1.7,8.9-5.1,12.3c-3.4,3.4-7.5,5.1-12.3,5.1s-8.9-1.7-12.3-5.1C192.88,325.51,191.18,321.41,191.18,316.61z M193.58,347.21h30
		v97.2h-30V347.21z"/>
	<path class="st1" d="M245.18,347.21h28.8v13.2h0.4c0.93-1.87,2.27-3.73,4-5.6c1.73-1.87,3.8-3.53,6.2-5c2.4-1.47,5.13-2.67,8.2-3.6
		c3.07-0.93,6.4-1.4,10-1.4c6.8,0,12.83,1.4,18.1,4.2c5.27,2.8,9.23,7.2,11.9,13.2c3.47-6.27,7.67-10.73,12.6-13.4
		c4.93-2.67,11-4,18.2-4c6.53,0,12.03,1.1,16.5,3.3c4.47,2.2,8,5.2,10.6,9c2.6,3.8,4.47,8.27,5.6,13.4c1.13,5.13,1.7,10.63,1.7,16.5
		v57.4h-30v-56.6c0-4.53-0.97-8.43-2.9-11.7c-1.93-3.27-5.37-4.9-10.3-4.9c-3.47,0-6.37,0.57-8.7,1.7c-2.33,1.13-4.2,2.7-5.6,4.7
		c-1.4,2-2.4,4.33-3,7c-0.6,2.67-0.9,5.47-0.9,8.4v51.4h-30v-51.4c0-1.73-0.07-3.87-0.2-6.4c-0.13-2.53-0.6-4.93-1.4-7.2
		c-0.8-2.27-2.1-4.2-3.9-5.8c-1.8-1.6-4.43-2.4-7.9-2.4c-3.87,0-7,0.7-9.4,2.1c-2.4,1.4-4.23,3.27-5.5,5.6
		c-1.27,2.33-2.1,4.97-2.5,7.9c-0.4,2.93-0.6,6-0.6,9.2v48.4h-30V347.21z"/>
	<path class="st1" d="M421.98,347.21h27.6v12.8h0.4c1.2-1.73,2.77-3.5,4.7-5.3c1.93-1.8,4.2-3.43,6.8-4.9
		c2.6-1.47,5.43-2.67,8.5-3.6c3.07-0.93,6.33-1.4,9.8-1.4c7.2,0,13.73,1.23,19.6,3.7c5.87,2.47,10.9,5.93,15.1,10.4
		c4.2,4.47,7.43,9.77,9.7,15.9c2.27,6.13,3.4,12.87,3.4,20.2c0,6.8-1.03,13.3-3.1,19.5c-2.07,6.2-5,11.7-8.8,16.5
		c-3.8,4.8-8.43,8.63-13.9,11.5c-5.47,2.87-11.67,4.3-18.6,4.3c-6.27,0-12.1-0.97-17.5-2.9c-5.4-1.93-9.83-5.23-13.3-9.9h-0.4v56
		h-30V347.21z M449.58,395.81c0,7.33,2.1,13.27,6.3,17.8c4.2,4.53,10.1,6.8,17.7,6.8s13.5-2.27,17.7-6.8
		c4.2-4.53,6.3-10.47,6.3-17.8c0-7.33-2.1-13.27-6.3-17.8c-4.2-4.53-10.1-6.8-17.7-6.8s-13.5,2.27-17.7,6.8
		C451.68,382.54,449.58,388.48,449.58,395.81z"/>
	<path class="st0" d="M623.78,350.61c6.13,4.8,10.87,10.87,14.2,18.2c3.33,7.33,5,14.93,5,22.8c0,7.47-1.2,14.5-3.6,21.1
		c-2.4,6.6-5.83,12.33-10.3,17.2c-4.47,4.87-9.83,8.7-16.1,11.5c-6.27,2.8-13.27,4.2-21,4.2c-7.73,0-14.73-1.4-21-4.2
		c-6.27-2.8-11.63-6.63-16.1-11.5c-4.47-4.87-7.9-10.6-10.3-17.2s-3.6-13.63-3.6-21.1c0-6.93,1.2-13.23,3.6-18.9
		c2.4-5.67,5.83-10.47,10.3-14.4c4.47-3.93,9.83-6.96,16.1-9.1c6.27-2.13,13.27-3.2,21-3.2h9.4v69.6c5.73-1.2,10.3-3.8,13.7-7.8
		s5.1-8.93,5.1-14.8c0-4.93-1.1-9.1-3.3-12.5c-2.2-3.4-5.03-6.37-8.5-8.9L623.78,350.61z M580.98,376.01c-5.07-0.13-9.4,1.53-13,5
		c-3.6,3.47-5.4,7.93-5.4,13.4c0,3.33,0.53,6.27,1.6,8.8c1.07,2.53,2.43,4.7,4.1,6.5c1.67,1.8,3.6,3.2,5.8,4.2s4.5,1.57,6.9,1.7
		V376.01z"/>
	<path class="st1" d="M660.38,293.21h30v151.2h-30V293.21z"/>
</g>
</svg>
